# xmcd
#
# Track frame offsets:
#	150
#	18844
#	34861
#	52764
#	69014
#	82751
#	94999
#	111125
#	127899
#	147657
#	164877
#	181573
#	194567
#	207146
#	221774
#	237774
#	254745
#	268374
#	282468
#	296939
#
# Disc length: 4148 seconds
#
# Revision: 0
# Processed by: cddbd v1.5.2PL0 Copyright (c) Steve Scherf et al.
# Submitted via: EasyCDDAExtractor 16.0.9.1
#
DISCID=32103214
DTITLE=Angeles Negros Vs Los Brios, 20 Exitos
DYEAR=1900
DGENRE=Romantica en Español
TTITLE0=Los Angeles Negros - Y Volvere
TTITLE1=Los Brios - Yo Se Que Te Acordaras
TTITLE2=Los Angeles Negros - Histria De Un Amor
TTITLE3=Los Brios - No Ge Olvidaras
TTITLE4=Los Angeles Negros - Debut Y Despedida
TTITLE5=Los Brios - Tengo Miedo
TTITLE6=Los Angeles Negros - Vete En Silencio
TTITLE7=Los Brios - Silueta De Cristal
TTITLE8=Los Angeles Negros - Ayer Preguntaron Por Ti
TTITLE9=Los Brios - Quiero Que Sepas
TTITLE10=Los Angeles Negros - Murio La Flor
TTITLE11=Los Brios - Cuando Calienta El Sol
TTITLE12=Los Angeles Negros - Como Quisiera Decirte
TTITLE13=Los Brios - Loco Y Apasionado
TTITLE14=Los Angeles Negros - Despacito
TTITLE15=Los Brios - Tu Nombre En La Arena
TTITLE16=Los Angeles Negros - La Mentira
TTITLE17=Los Brios - Nostalgia
TTITLE18=Los Angeles Negros - Mi Niña
TTITLE19=Los Brios - Porque Estas Enamorada
EXTD=
EXTT0=
EXTT1=
EXTT2=
EXTT3=
EXTT4=
EXTT5=
EXTT6=
EXTT7=
EXTT8=
EXTT9=
EXTT10=
EXTT11=
EXTT12=
EXTT13=
EXTT14=
EXTT15=
EXTT16=
EXTT17=
EXTT18=
EXTT19=
PLAYORDER=
